<?xml version="1.0" standalone="no"?><!DOCTYPE svg PUBLIC "-//W3C//DTD SVG 1.1//EN" "http://www.w3.org/Graphics/SVG/1.1/DTD/svg11.dtd"><svg t="1498866190992" class="icon" style="" viewBox="0 0 1024 1024" version="1.1" xmlns="http://www.w3.org/2000/svg" p-id="34511" xmlns:xlink="http://www.w3.org/1999/xlink" width="32" height="32"><defs><style type="text/css"></style></defs><path d="M509.929 74.535c-241.605 0-437.465 195.859-437.465 437.465s195.859 437.465 437.465 437.465 437.465-195.859 437.465-437.465-195.86-437.465-437.465-437.465zM695.841 674.501c-6.049 6.162-14.911 15.138-18.347 18.66l-3.039 3.095-5.085 5.169c-24.681 25.078-109.942 62.795-262.43-85.289-147.29-143.058-106.477-229.853-86.454-254.931 12.212-12.639 27.293-27.834 33.627-34.196h0.029c15.195-15.45 39.933-15.365 55.242 0.17l49.219 49.987c15.28 15.507 15.365 40.642 0.142 56.094-7.156 7.271-24.481 24.85-24.481 24.85l-9.174 9.315c-14.74 15.28-11.332 23.261 5.283 43.653 0.454 1.022 73.901 73.787 74.413 73.986 35.643 28.941 39.792 32.689 53.877 18.092l30.503-30.987c15.223-15.423 42.034-19.284 57.314-3.749l49.219 50.015c15.279 15.506 15.337 40.642 0.141 56.064zM512.112 380.033c1.392-5.113 6.645-8.265 11.758-7.072 21.585 5.084 48.85 6.731 82.109 40.586 29.935 30.418 34.394 61.291 38.825 83.075 1.052 5.113-2.329 10.225-7.555 11.418-3.38 0.796-6.703-0.285-8.89-2.528-1.194-1.221-2.045-2.784-2.443-4.573-3.719-18.291-8.605-48.169-33.939-73.93-33.457-34.053-54.957-31.242-73.104-35.531-5.085-1.193-8.151-6.334-6.759-11.446zM712.314 512.867c-3.38 0.738-6.675-0.311-8.861-2.556-1.194-1.221-2.075-2.812-2.443-4.629-5.793-29.254-15.138-76.94-61.631-124.257-45.527-46.322-92.448-56.774-120.508-63.677-5.084-1.279-8.094-6.418-6.645-11.502 1.392-5.113 6.731-8.237 11.873-6.987 31.412 7.753 74.924 13.377 129.283 68.703 59.474 60.524 60.069 100.74 66.574 133.516 0.994 5.113-2.386 10.225-7.641 11.389z" p-id="34512" fill="#ff6666"></path></svg>